<?xml version="1.0" encoding="UTF-8" standalone="no"?>
<!-- Created with Inkscape (http://www.inkscape.org/) -->

<svg
   version="1.1"
   id="svg1"
   width="289.33334"
   height="289.33334"
   viewBox="0 0 289.33334 289.33334"
   sodipodi:docname="Trident_Gold.eps"
   xmlns:inkscape="http://www.inkscape.org/namespaces/inkscape"
   xmlns:sodipodi="http://sodipodi.sourceforge.net/DTD/sodipodi-0.dtd"
   xmlns="http://www.w3.org/2000/svg"
   xmlns:svg="http://www.w3.org/2000/svg">
  <defs
     id="defs1" />
  <sodipodi:namedview
     id="namedview1"
     pagecolor="#ffffff"
     bordercolor="#000000"
     borderopacity="0.25"
     inkscape:showpageshadow="2"
     inkscape:pageopacity="0.0"
     inkscape:pagecheckerboard="0"
     inkscape:deskcolor="#d1d1d1">
    <inkscape:page
       x="0"
       y="0"
       inkscape:label="1"
       id="page1"
       width="289.33334"
       height="289.33334"
       margin="0"
       bleed="0" />
  </sodipodi:namedview>
  <g
     id="g1"
     inkscape:groupmode="layer"
     inkscape:label="1">
    <g
       id="group-R5">
      <path
         id="path2"
         d="m 1001.34,191.512 -36.078,60.047 967.918,479.761 z m -208.481,1650.268 22.852,-485.43 -59.141,35.53 z m 1235.261,108.45 -236.69,-582.77 -54.69,54.71 z M 2164.71,815.719 c -1.03,4.222 -4.65,7.281 -8.99,7.551 l -884.56,56.921 c -3.67,0.239 -7.18,-1.589 -9.09,-4.73 -1.91,-3.152 -1.93,-7.09 -0.03,-10.262 L 1373.39,679.891 1077.5,502.102 c -46.43,59.468 -98.496,120.957 -154.945,182.957 l 739.295,714.301 143.51,-143.5 c 2.35,-2.38 5.77,-3.38 9.05,-2.69 3.28,0.7 5.97,3.01 7.19,6.15 l 342.52,891.91 c 2.81,7.31 -5.49,15.61 -12.79,12.8 L 1259.4,1821.49 c -3.12,-1.2 -5.43,-3.9 -6.13,-7.19 -0.68,-3.26 0.31,-6.67 2.69,-9.05 L 1399.45,1661.76 685.047,922.57 c -61.848,56.289 -123.293,108.32 -182.852,154.84 l 177.793,295.89 185.313,-111.36 c 3.164,-1.88 7.109,-1.87 10.254,0.03 3.133,1.92 4.968,5.43 4.726,9.1 l -56.914,884.56 c -0.281,4.32 -3.351,7.94 -7.539,8.99 -4.219,1.01 -8.594,-0.81 -10.828,-4.53 L 429.578,1535.3 c -0.723,-1.2 -1.105,-2.53 -1.183,-3.88 L 92.457,972.34 c -1.3867,-2.328 -1.7656,-5.129 -1.0351,-7.738 0.7148,-2.633 2.4804,-4.832 4.8828,-6.102 C 192.117,907.738 326.93,806.961 458.309,687.969 L 4.99609,218.941 218.836,5.10938 687.938,458.359 C 806.98,326.961 907.801,192.102 958.59,96.2305 c 1.262,-2.4297 3.476,-4.1914 6.113,-4.8985 2.61,-0.7304 5.422,-0.3515 7.746,1.0469 L 1531.2,428.109 c 1.43,0.129 2.87,0.571 4.2,1.371 l 624.79,375.411 c 3.72,2.238 5.55,6.621 4.52,10.828"
         style="fill:#fbcb07;fill-opacity:1;fill-rule:nonzero;stroke:none"
         transform="matrix(0.13333333,0,0,-0.13333333,0,289.33333)" />
    </g>
  </g>
</svg>
